<svg xmlns="http://www.w3.org/2000/svg" width="720" height="220" viewBox="0 0 720 220" role="img" aria-labelledby="title desc">
  <title id="title">HaaS — Harness As A Service</title>
  <desc id="desc">The HaaS Protocol Bridge mark followed by the HaaS wordmark and Harness As A Service name.</desc>
  <defs>
    <linearGradient id="left" gradientUnits="userSpaceOnUse" x1="62" y1="48" x2="62" y2="208"><stop stop-color="#22d3ee"/><stop offset="1" stop-color="#38bdf8"/></linearGradient>
    <linearGradient id="bridge" gradientUnits="userSpaceOnUse" x1="62" y1="128" x2="194" y2="128"><stop stop-color="#22d3ee"/><stop offset=".5" stop-color="#34d399"/><stop offset="1" stop-color="#a78bfa"/></linearGradient>
    <linearGradient id="right" gradientUnits="userSpaceOnUse" x1="194" y1="48" x2="194" y2="208"><stop stop-color="#a78bfa"/><stop offset="1" stop-color="#8b5cf6"/></linearGradient>
  </defs>
  <rect width="720" height="220" rx="34" fill="#08111f"/>
  <g transform="translate(32 20) scale(.7)">
    <path d="M62 48v160" fill="none" stroke="url(#left)" stroke-width="28" stroke-linecap="round"/>
    <path d="M194 48v160" fill="none" stroke="url(#right)" stroke-width="28" stroke-linecap="round"/>
    <path d="M62 128h132" fill="none" stroke="url(#bridge)" stroke-width="28" stroke-linecap="round"/>
    <path d="M22 128h40M194 128h40" fill="none" stroke="#f8fafc" stroke-width="8" stroke-linecap="round"/>
    <circle cx="62" cy="128" r="7" fill="#f8fafc"/><circle cx="194" cy="128" r="7" fill="#f8fafc"/>
  </g>
  <g fill="#f8fafc">
    <path d="M244 58h22v41h54V58h22v104h-22v-43h-54v43h-22z"/>
    <path d="M388 58h25l42 104h-24l-9-24h-44l-9 24h-23zm12 26-15 36h30z"/>
    <path d="M488 58h25l42 104h-24l-9-24h-44l-9 24h-23zm12 26-15 36h30z"/>
    <path d="M563 132c13 9 26 13 39 13 12 0 19-4 19-11 0-6-5-9-23-14-25-6-39-15-39-32 0-20 17-33 44-33 16 0 30 4 42 12l-10 17c-11-6-21-9-32-9-12 0-19 4-19 11 0 6 6 9 24 14 26 7 38 16 38 33 0 20-17 32-45 32-19 0-36-5-49-15z"/>
  </g>
  <g fill="#9fb1c8">
    <rect x="245" y="181" width="19" height="4" rx="2"/><rect x="272" y="181" width="11" height="4" rx="2"/>
    <rect x="291" y="181" width="18" height="4" rx="2"/><rect x="317" y="181" width="13" height="4" rx="2"/>
    <rect x="338" y="181" width="20" height="4" rx="2"/><rect x="366" y="181" width="10" height="4" rx="2"/>
    <rect x="384" y="181" width="17" height="4" rx="2"/><rect x="409" y="181" width="20" height="4" rx="2"/>
    <rect x="437" y="181" width="13" height="4" rx="2"/><rect x="458" y="181" width="19" height="4" rx="2"/>
    <rect x="485" y="181" width="11" height="4" rx="2"/><rect x="504" y="181" width="18" height="4" rx="2"/>
  </g>
</svg>
